# xmcd
#
# Track frame offsets: 
#        150
#        19552
#        31292
#        44588
#        59176
#        79816
#        92542
#        105273
#        121244
#        139174
#
# Disc length: 2086 seconds
#
# Revision: 0
# Processed by: cddbd v1.5.2PL0 Copyright (c) Steve Scherf et al.
# Submitted via: ExactAudioCopy v0.99pb5
#
DISCID=7d08240a
DTITLE=The Standard Lamps - Sell Everything You Own
DYEAR=2012
DGENRE=Blues
TTITLE0=The Right Train
TTITLE1=English Summer
TTITLE2=Portland
TTITLE3=Lyla Won't Go In The Sea
TTITLE4=The Harmonica Song
TTITLE5=Distractions
TTITLE6=New Addison Way
TTITLE7=I'm A Little Bit Scared Of You
TTITLE8=See You Again
TTITLE9=The Girl Who Came To Stay
EXTD=
EXTT0=
EXTT1=
EXTT2=
EXTT3=
EXTT4=
EXTT5=
EXTT6=
EXTT7=
EXTT8=
EXTT9=
PLAYORDER=
